#!OML:ASF F:\VICON\USERDATA\INSTALL\rory3\rory3.ASF
:FULLY-SPECIFIED
:DEGREES
665
root 2.84168 16.8423 8.11748 -3.98388 22.6022 3.09207
lowerback 2.53017 -12.7606 -6.72831
upperback -0.772823 -17.2508 5.58412
thorax 1.49067 -8.76354 9.12271
lowerneck -7.13003 -3.77093 -11.5059
upperneck 22.2671 -5.67718 9.52343
head 8.67513 -2.77315 4.63382
rclavicle 1.59748e-013 -3.18055e-015
rhumerus -56.3037 -26.842 -35.1936
rradius 24.1927
rwrist -10.7403
rhand -15.5612 12.5043
rfingers 7.12502
rthumb 10.6235 -17.2071
lclavicle 1.59748e-013 -3.18055e-015
lhumerus 57.5894 -79.1457 63.8184
lradius 56.5343
lwrist -3.85142
lhand -6.05109 13.5825
lfingers 7.12502
lthumb 19.7832 -317.404
rfemur -32.4917 9.80689 24.6584
rtibia 40.8442
rfoot 6.61806 8.04889
rtoes 19.7068
lfemur 0.888451 4.39563 -31.2022
ltibia 43.466
lfoot -19.7458 -12.2695
ltoes 16.1174
666
root 2.85272 16.8232 8.14456 -4.0136 22.2594 2.58321
lowerback 3.9421 -12.2224 -5.59653
upperback -1.96612 -16.5089 5.56513
thorax -1.00925 -8.23109 9.17076
lowerneck -6.22194 -3.96013 -11.5943
upperneck 23.058 -6.0894 9.49245
head 8.82787 -3.00813 4.6243
rclavicle -1.25582e-013 2.8625e-014
rhumerus -56.9906 -26.4199 -33.3004
rradius 24.4056
rwrist -10.0747
rhand -15.3579 12.7765
rfingers 7.12502
rthumb 10.8195 -16.9248
lclavicle -1.25582e-013 2.8625e-014
lhumerus 47.0418 -79.7001 73.3015
lradius 56.0258
lwrist -3.57979
lhand -5.29389 13.8541
lfingers 7.12502
lthumb 20.511 -317.209
rfemur -32.3103 9.22177 25.6597
rtibia 40.5809
rfoot 5.70959 7.86682
rtoes 20.6026
lfemur 0.477953 4.59923 -30.7861
ltibia 44.0576
lfoot -19.8602 -11.9349
ltoes 16.4517
667
root 2.86205 16.8067 8.17096 -4.08176 21.8136 2.09975
lowerback 4.24752 -11.6324 -4.99005
upperback -2.17587 -15.6838 5.60909
thorax -1.70226 -7.77891 9.07168
lowerneck -5.67439 -4.24306 -11.7004
upperneck 22.9079 -6.57092 9.71021
head 8.7428 -3.23633 4.67365
rclavicle -7.4743e-014 -7.95139e-015
rhumerus -64.2916 -40.1435 -13.3765
rradius 18.6197
rwrist 9.87399
rhand -13.3038 17.9911
rfingers 7.12502
rthumb 12.8004 -11.5964
lclavicle -7.4743e-014 -7.95139e-015
lhumerus 46.6062 -79.8378 72.5826
lradius 55.5556
lwrist -3.28048
lhand -4.96671 14.6389
lfingers 7.12502
lthumb 20.8254 -316.459
rfemur -32.0927 8.60045 26.6716
rtibia 40.3465
rfoot 5.12487 7.22173
rtoes 23.9658
lfemur 0.18339 4.68935 -30.4241
ltibia 44.5466
lfoot -19.7891 -11.6521
ltoes 17.7925
668
root 2.8668 16.7896 8.19898 -4.25578 21.5966 1.79165
lowerback 4.84269 -11.123 -4.75257
upperback -2.42396 -14.9946 5.68882
thorax -2.45644 -7.38894 9.23753
lowerneck -5.12063 -4.53173 -11.9044
upperneck 22.7826 -7.03223 9.85017
head 8.66668 -3.4717 4.7164
rclavicle -4.88016e-014 -9.54166e-015
rhumerus -56.1649 -26.7711 -31.8799
rradius 25.7641
rwrist -11.0988
rhand -15.5403 13.1903
rfingers 7.12502
rthumb 10.6436 -16.5201
lclavicle -4.88016e-014 -9.54166e-015
lhumerus 45.8103 -79.9334 72.2121
lradius 55.0837
lwrist -2.90043
lhand -5.15233 16.5662
lfingers 7.12502
lthumb 20.647 -314.512
rfemur -31.6829 7.76911 27.4714
rtibia 40.1376
rfoot 4.54635 6.55659
rtoes 27.9413
lfemur 0.186148 4.61935 -30.2032
ltibia 44.9135
lfoot -20.0674 -11.2659
ltoes 17.1568
669
root 2.8765 16.7691 8.21937 -4.24447 21.6194 2.02172
lowerback 5.25678 -10.6835 -5.12435
upperback -2.47663 -14.4448 5.70447
thorax -2.74949 -7.0885 9.5544
lowerneck -4.95579 -4.80552 -12.0319
upperneck 22.573 -7.41862 9.93919
head 8.62206 -3.65786 4.7277
rclavicle -2.15483e-013 -3.33958e-014
rhumerus -55.0197 -26.2999 -32.3458
rradius 26.8656
rwrist -12.9339
rhand -16.4545 12.6666
rfingers 7.12502
rthumb 9.76168 -17.0871
lclavicle -2.15483e-013 -3.33958e-014
lhumerus 44.007 -79.5401 72.9634
lradius 54.4227
lwrist -2.69166
lhand -4.5934 18.0274
lfingers 7.12502
lthumb 21.184 -313.11
rfemur -31.3694 6.65992 27.5825
rtibia 40.0205
rfoot 3.61815 6.96995
rtoes 28.8806
lfemur 0.309741 4.34206 -30.5961
ltibia 45.1755
lfoot -20.6242 -10.6666
ltoes 15.3008
670
root 2.87889 16.7436 8.23811 -4.24732 21.6575 2.33091
lowerback 5.98695 -10.2333 -6.40478
upperback -2.60175 -13.9618 6.31566
thorax -2.92842 -6.81216 11.0403
lowerneck -4.81706 -5.05126 -12.8078
upperneck 22.1679 -7.607 9.79375
head 8.51467 -3.82158 4.78299
rclavicle 1.08338e-014 6.36111e-015
rhumerus -53.0686 -25.5979 -32.4014
rradius 27.9707
rwrist -14.9731
rhand -17.2263 12.1714
rfingers 7.12502
rthumb 9.01702 -17.6158
lclavicle 1.08338e-014 6.36111e-015
lhumerus 40.4334 -78.2624 76.3214
lradius 53.4765
lwrist -2.76579
lhand -3.50817 18.8696
lfingers 7.12502
lthumb 22.2262 -312.388
rfemur -31.1339 5.94399 27.4826
rtibia 40.0291
rfoot 2.82799 7.49567
rtoes 29.4698
lfemur 0.45893 4.04433 -31.0298
ltibia 45.3847
lfoot -20.9726 -10.2566
ltoes 14.6457
671
root 2.87299 16.7126 8.24946 -4.24573 21.5736 2.38591
lowerback 6.28222 -9.81883 -6.58617
upperback -2.57154 -13.4345 6.29364
thorax -3.1454 -6.5286 11.1841
lowerneck -4.62832 -5.33809 -12.9598
upperneck 21.8567 -8.02616 9.97276
head 8.44257 -4.01806 4.82517
rclavicle 1.16687e-013 -4.92986e-014
rhumerus -52.1174 -26.0667 -32.2273
rradius 28.8128
rwrist -16.0614
rhand -17.8024 12.4056
rfingers 7.12502
rthumb 8.46108 -17.4049
lclavicle 1.16687e-013 -4.92986e-014
lhumerus 37.6808 -77.5459 77.7975
lradius 52.6034
lwrist -2.6351
lhand -2.73612 20.4084
lfingers 7.12502
lthumb 22.9672 -310.94
rfemur -31.1777 5.94979 27.4993
rtibia 40.1948
rfoot 2.27407 7.70703
rtoes 30.0972
lfemur 0.385409 3.73635 -31.1953
ltibia 45.5986
lfoot -21.0622 -9.93104
ltoes 14.5402
672
root 2.86452 16.6857 8.26668 -4.27319 21.6468 2.45346
lowerback 6.20682 -9.43912 -6.68827
upperback -2.34736 -12.935 6.14754
thorax -2.99332 -6.29173 11.0428
lowerneck -4.51389 -5.60385 -12.9194
upperneck 21.4225 -8.44519 10.2757
head 8.33916 -4.18641 4.87459
rclavicle -5.9039e-014 4.29375e-014
rhumerus -51.3524 -27.1385 -31.8269
rradius 29.5689
rwrist -16.8333
rhand -17.9703 13.0206
rfingers 7.12502
rthumb 8.299 -16.7964
lclavicle -5.9039e-014 4.29375e-014
lhumerus 35.0575 -76.7726 79.0587
lradius 51.6271
lwrist -2.62271
lhand -2.45533 22.1609
lfingers 7.12502
lthumb 23.2366 -309.221
rfemur -31.2282 6.22853 27.4043
rtibia 40.4749
rfoot 1.56536 7.73387
rtoes 29.3157
lfemur 0.394345 3.39047 -31.3183
ltibia 45.7945
lfoot -21.231 -9.70163
ltoes 14.2051
673
root 2.85935 16.6632 8.28964 -4.36658 21.7814 2.66358
lowerback 5.76134 -9.08702 -6.83296
upperback -1.75062 -12.4628 5.84963
thorax -2.2598 -6.11801 10.6403
lowerneck -4.74237 -5.84726 -12.5895
upperneck 20.8177 -8.79971 10.542
head 8.21874 -4.29494 4.85761
rclavicle 1.55947e-013 2.38542e-014
rhumerus -50.286 -28.1133 -32.3603
rradius 30.8312
rwrist -18.2779
rhand -18.3718 13.1188
rfingers 7.12502
rthumb 7.91152 -16.7132
lclavicle 1.55947e-013 2.38542e-014
lhumerus 33.5133 -75.7194 79.2164
lradius 50.4213
lwrist -2.95328
lhand -2.47292 23.336
lfingers 7.12502
lthumb 23.2197 -308.044
rfemur -31.1574 6.39697 27.1805
rtibia 40.7874
rfoot 1.07869 7.64596
rtoes 28.3203
lfemur 0.571317 3.14682 -31.5541
ltibia 45.9164
lfoot -21.4851 -9.66087
ltoes 14.0625
674
root 2.84987 16.6455 8.30482 -4.45131 21.8759 2.83308
lowerback 5.5628 -8.77591 -6.84638
upperback -1.31674 -12.0434 5.5368
thorax -1.85254 -5.9437 10.2309
lowerneck -5.17655 -6.13368 -12.2989
upperneck 20.6828 -9.18019 10.5774
head 8.29033 -4.43361 4.76531
rclavicle 7.80727e-014 -3.18055e-014
rhumerus -49.2048 -28.6036 -33.2597
rradius 32.3697
rwrist -20.0369
rhand -19.3927 12.658
rfingers 7.12502
rthumb 6.92606 -17.2087
lclavicle 7.80727e-014 -3.18055e-014
lhumerus 31.1576 -74.4807 80.1076
lradius 49.117
lwrist -3.52314
lhand -2.30752 24.3011
lfingers 7.12502
lthumb 23.3784 -307.099
rfemur -31.2182 6.54993 27.0051
rtibia 41.1424
rfoot 1.1105 7.40758
rtoes 28.5148
lfemur 0.719229 2.98896 -31.7167
ltibia 45.9839
lfoot -21.7298 -9.72234
ltoes 14.1438
